<svg width="80" height="81" viewBox="0 0 80 81" fill="none" xmlns="http://www.w3.org/2000/svg">
<g clip-path="url(#clip0_77_535)">
<path fill-rule="evenodd" clip-rule="evenodd" d="M37.5665 0.163733L37.7456 0.3177L37.7265 2.93953C37.7108 5.09858 37.6906 5.59348 37.6131 5.74282C37.5611 5.84258 37.4836 5.92927 37.4407 5.93539C37.2128 5.96793 38.6925 6.0291 39.4061 6.01664C40.314 6.0008 40.7448 5.89022 41.2585 5.54109C41.6 5.3089 42.0792 4.79158 42.2355 4.48646C42.8871 3.21223 42.5771 1.59052 41.5225 0.760652C40.7438 0.14758 40.209 0.0124366 38.5566 0.0108467L37.3873 0.00976562L37.5665 0.163733ZM39.8067 0.232862C40.365 0.363935 40.8123 0.605412 41.1656 0.966831C42.2261 2.0509 42.1741 4.14221 41.0619 5.15454C40.5039 5.6623 40.002 5.84241 39.087 5.86289C38.3083 5.88036 38.3076 5.88023 38.3258 5.71756C38.3345 5.63881 38.3442 4.35098 38.3472 2.85571L38.3526 0.136959L38.8794 0.137913C39.1692 0.138421 39.5863 0.181158 39.8067 0.232862ZM32.6683 0.586268C30.565 0.942726 30.7669 0.895729 30.9494 0.986292C31.0342 1.02839 31.1383 1.13492 31.1807 1.22306C31.2766 1.42224 32.0296 5.8819 32.0296 6.25081C32.0296 6.44154 31.9877 6.56579 31.8859 6.67641L31.7422 6.83253L31.9019 6.79728C31.9897 6.77791 32.8232 6.64039 33.754 6.49172C34.6847 6.34308 35.4547 6.21546 35.4651 6.20814C35.4752 6.20076 35.499 5.96933 35.5182 5.69384L35.5527 5.1929L35.4356 5.4C35.0961 6.00144 34.7146 6.20717 33.587 6.39684C32.8191 6.526 32.7315 6.53014 32.7054 6.43893C32.6368 6.19916 32.2609 3.76488 32.2882 3.73762C32.3559 3.67027 33.5065 3.50713 33.6541 3.54401C33.7416 3.56589 33.8899 3.65964 33.9838 3.75235C34.1298 3.89665 34.1493 3.90263 34.1187 3.79375C34.0989 3.72382 34.064 3.5378 34.0416 3.38037C34.0187 3.22298 33.9849 3.04097 33.9664 2.97584C33.9352 2.86729 33.9265 2.86945 33.8594 3.00154C33.7265 3.26235 33.4742 3.38618 32.8679 3.48792C32.5443 3.54231 32.2659 3.57334 32.2494 3.55687C32.233 3.54047 32.1331 3.00039 32.0277 2.35667C31.9222 1.71295 31.8206 1.11138 31.8018 1.01987L31.7677 0.853373L32.6691 0.711426C33.8225 0.529796 34.0882 0.574184 34.618 1.03736L34.8448 1.23578L34.7119 0.899671C34.5029 0.371693 34.4687 0.327049 34.2788 0.335253C34.1835 0.339386 33.4586 0.452333 32.6683 0.586268ZM49.2381 1.16869C49.2927 1.2464 49.3377 1.37951 49.3377 1.46454C49.3377 1.71084 47.9403 6.32097 47.8128 6.4951C47.7494 6.58169 47.6283 6.67023 47.5437 6.69178C47.4219 6.72275 47.5102 6.76818 47.9644 6.9084C48.2805 7.00596 48.5805 7.10134 48.6304 7.12039C48.7016 7.14721 48.6979 7.12075 48.6147 7.00245C48.4513 6.77009 48.4811 6.56021 48.8542 5.32009C49.0995 4.50517 49.2253 4.17745 49.2907 4.1826C49.3739 4.18921 52.0346 4.96845 52.0648 4.99511C52.101 5.02702 51.3682 7.36578 51.28 7.49985C51.2233 7.58608 51.1223 7.67087 51.0555 7.68821C50.8401 7.74424 50.924 7.7989 51.4605 7.95201C51.7501 8.03463 52.0282 8.11806 52.0789 8.1374C52.1507 8.16486 52.1473 8.13931 52.0634 8.02C52.0044 7.93604 51.9561 7.79429 51.9561 7.70495C51.9561 7.48562 53.336 2.8877 53.4568 2.70378C53.5098 2.62365 53.6175 2.52361 53.6964 2.48151C53.8293 2.41072 53.8041 2.39381 53.3683 2.26134C53.1086 2.18235 52.8261 2.10025 52.7402 2.07875C52.5892 2.04104 52.5875 2.04454 52.6851 2.18362C52.7408 2.2628 52.7868 2.39985 52.7871 2.48831C52.7878 2.72133 52.1399 4.8431 52.0678 4.8431C51.951 4.8431 49.3689 4.0666 49.3139 4.01482C49.2478 3.95287 49.8631 1.86074 50.0154 1.62925C50.0728 1.54219 50.1923 1.45283 50.2812 1.43058C50.412 1.39795 50.3278 1.35579 49.8423 1.21079C49.1129 0.99284 49.1146 0.992967 49.2381 1.16869ZM25.3624 2.43979C24.797 2.633 24.7953 2.6342 24.9842 2.71325C25.0932 2.75892 25.2168 2.88401 25.2745 3.00707C25.4444 3.36945 26.8564 7.74076 26.8564 7.90437C26.8564 7.98896 26.8083 8.12658 26.7495 8.2101C26.6908 8.29366 26.6692 8.34638 26.7016 8.32737C26.7341 8.30829 27.5294 8.04506 28.469 7.7424L30.1775 7.19212L30.1738 6.89207C30.17 6.58413 30.0703 5.99142 30.0571 6.19852C30.041 6.45056 29.6927 7.03178 29.4549 7.20331C29.2448 7.35485 27.7842 7.89575 27.5849 7.89575C27.5466 7.89575 27.48 7.77407 27.437 7.62547C27.394 7.47683 27.0612 6.4537 26.6976 5.35186C25.7985 2.62721 25.8322 2.7537 25.9299 2.47063C25.9746 2.34141 25.9929 2.23793 25.9707 2.24067C25.9485 2.2434 25.6748 2.33301 25.3624 2.43979ZM56.1715 6.378C54.154 8.24361 53.7262 8.58519 53.3931 8.59708C53.284 8.60096 54.1363 9.09167 54.2684 9.10096C54.2929 9.10266 54.2671 9.02375 54.2104 8.92563C54.0447 8.63791 54.145 8.42549 54.6912 7.90858C54.9609 7.6533 55.2723 7.37279 55.3834 7.28526L55.5853 7.1261L56.4852 7.57495L57.3847 8.02374V8.30281C57.3847 8.8559 57.2478 9.90202 57.1572 10.0404C57.1066 10.1181 56.9717 10.2063 56.8576 10.2364C56.6506 10.291 56.6509 10.2912 57.2253 10.5694C58.0839 10.9852 58.042 10.9717 57.9256 10.7951C57.7773 10.5698 57.7981 10.1048 58.0866 7.20114C58.2302 5.7522 58.3396 4.52912 58.3295 4.48315C58.3195 4.43711 57.3481 5.28982 56.1715 6.378ZM19.6525 4.98506C19.1827 5.22143 19.1392 5.25761 19.268 5.30505C19.3479 5.33452 19.4675 5.40715 19.5337 5.46655C19.6 5.52589 20.1548 6.57063 20.7666 7.78827C21.8886 10.0215 21.9981 10.3104 21.808 10.5385C21.76 10.596 22.4838 10.2636 23.4164 9.79962L25.1121 8.9561L24.9828 8.44343L24.8535 7.93076L24.7804 8.24712C24.6816 8.67506 24.4695 9.06712 24.2552 9.21809C24.0827 9.33964 22.6759 10.058 22.6104 10.058C22.5305 10.058 20.1503 5.20974 20.1503 5.04693C20.1503 4.94881 20.1848 4.83421 20.227 4.79222C20.364 4.65581 20.1925 4.71337 19.6525 4.98506ZM57.5568 6.5284C57.4864 7.26294 57.422 7.87273 57.4136 7.88352C57.3968 7.90577 55.6605 7.06753 55.6605 7.037C55.6605 7.00616 57.6595 5.15829 57.6729 5.17666C57.6796 5.18558 57.6273 5.79387 57.5568 6.5284ZM16.2863 7.00539C15.7962 7.33056 15.738 7.38672 15.8914 7.38683C15.9903 7.38689 16.1254 7.41582 16.1917 7.45121C16.2579 7.48649 16.5628 7.89428 16.8692 8.35744C19.3395 12.0916 19.2339 11.9122 19.1264 12.1938L19.0613 12.3642L19.2386 12.2499C20.16 11.6553 20.2482 11.5843 20.0656 11.5843C19.9671 11.5843 19.8288 11.5536 19.7584 11.5161C19.6585 11.4629 17.7735 8.69413 16.9906 7.45057C16.8068 7.15861 16.7606 6.96246 16.8319 6.776C16.8638 6.69231 16.8835 6.62386 16.8755 6.62392C16.8676 6.62399 16.6025 6.79565 16.2863 7.00539ZM62.5503 6.89574C62.7382 7.13168 62.5916 7.40904 61.1841 9.48273C60.4235 10.6032 59.7276 11.5774 59.638 11.6476C59.5485 11.7177 59.4005 11.7751 59.3089 11.7751C59.173 11.7751 59.2384 11.8392 59.6669 12.1249C59.9554 12.3173 60.202 12.4747 60.2141 12.4747C60.2265 12.4747 60.2245 12.3927 60.2098 12.2923C60.1772 12.0701 60.2873 11.8496 60.8009 11.1074C61.0187 10.7925 61.5921 9.94832 62.0749 9.23126C63.0278 7.8158 63.2331 7.57776 63.5005 7.57776C63.6528 7.57776 63.623 7.54355 63.2599 7.3022C62.5144 6.8064 62.45 6.76955 62.5503 6.89574ZM11.8616 10.3801C10.9757 11.1519 10.2513 11.803 10.2517 11.827C10.2521 11.8509 10.3519 12.0422 10.4733 12.2521L10.6941 12.6337L10.6961 12.3231C10.6994 11.7835 10.8156 11.5347 11.2691 11.0962C11.4984 10.8746 11.7045 10.7006 11.7273 10.7096C11.7971 10.737 15.1109 14.5291 15.2427 14.7324C15.3264 14.8615 15.3563 14.9909 15.3349 15.1328L15.3035 15.3425L15.6244 15.0692C15.8009 14.919 16.0364 14.7191 16.1478 14.6251L16.3502 14.4544L16.1446 14.4599C16.0165 14.4634 15.8671 14.4078 15.7484 14.3127C15.6437 14.2287 14.7962 13.2918 13.8651 12.2307L12.1722 10.3013L12.5244 9.99443C12.7181 9.82564 12.9683 9.64426 13.0805 9.59128C13.3307 9.47318 13.7852 9.42593 14.0656 9.48891C14.1805 9.5147 14.2745 9.5287 14.2745 9.51998C14.2745 9.49877 13.5264 8.97688 13.496 8.97688C13.483 8.97688 12.7475 9.60832 11.8616 10.3801ZM65.9783 9.38013C66.0071 9.49449 65.9793 9.6171 65.8914 9.76587C65.6666 10.145 62.4983 13.6164 62.3477 13.6482C62.2702 13.6646 62.1537 13.6863 62.089 13.6965C62.0001 13.7103 62.0927 13.8238 62.4637 14.1554C62.9227 14.5658 62.9536 14.583 62.915 14.4078C62.8627 14.1706 63.0643 13.8622 63.7565 13.1203L64.252 12.5894L64.6459 12.9295C64.9241 13.1698 65.0412 13.3163 65.0449 13.4286C65.0476 13.5161 64.9586 14.1503 64.8473 14.8381L64.6446 16.0885L64.9905 16.4059C65.3505 16.7363 65.4263 16.7717 65.3096 16.5545C65.2036 16.3575 65.2234 16.0357 65.4139 14.8425C65.5606 13.9237 65.6052 13.7511 65.6864 13.7858C66.597 14.1756 67.326 14.0865 67.8884 13.5168C68.2299 13.1708 68.3863 12.7915 68.3879 12.3055C68.3903 11.5305 67.9672 10.9648 66.3269 9.54982C65.9732 9.24482 65.94 9.22852 65.9783 9.38013ZM67.2261 10.5223C67.7951 11.07 67.9863 11.4078 67.987 11.866C67.988 12.4163 67.4388 13.2177 66.8741 13.49C66.2182 13.806 65.5579 13.6212 64.7634 12.8993L64.3181 12.4946L65.3381 11.3669C65.8991 10.7467 66.3977 10.1841 66.446 10.1168C66.494 10.0495 66.5661 9.99443 66.6057 9.99443C66.6453 9.99443 66.9244 10.232 67.2261 10.5223ZM8.16999 14.2081L8.17522 14.4711L7.63434 14.769C7.03091 15.1015 6.80098 15.3316 6.55988 15.8442C6.31764 16.3593 6.32428 16.8684 6.57854 17.2732C6.68392 17.4409 6.89335 17.6663 7.0439 17.7741C7.56958 18.1504 8.4275 18.0607 9.51369 17.516C10.5696 16.9864 11.1974 16.8599 11.601 17.0952C11.9016 17.2705 12.0532 17.5137 12.0883 17.8768C12.1532 18.5496 11.5271 19.3969 10.7957 19.6259C10.4105 19.7466 9.71175 19.7647 9.36097 19.6631C9.24042 19.6282 9.13151 19.6098 9.11906 19.6222C9.10661 19.6346 9.36617 19.8631 9.69591 20.1299C10.2481 20.5767 10.4405 20.7026 10.3512 20.5588C10.332 20.5278 10.3483 20.4111 10.3873 20.2996C10.4402 20.1487 10.5948 20.0072 10.9899 19.7481C11.914 19.142 12.2627 18.5927 12.2627 17.7427C12.2627 17.3033 12.2438 17.2285 12.07 16.9823C11.8021 16.6028 11.3112 16.3541 10.83 16.3541C10.3656 16.3541 9.94651 16.479 9.06937 16.8788C7.6798 17.5121 7.16938 17.5206 6.7211 16.9178C6.28426 16.3304 6.77844 15.275 7.67527 14.88C7.96096 14.7541 8.69651 14.7084 8.9823 14.7987C9.04776 14.8194 9.10131 14.8236 9.10131 14.8081C9.10131 14.7925 8.89061 14.592 8.63303 14.3624L8.16475 13.9451L8.16999 14.2081ZM24.0655 17.9077C25.582 18.5296 26.3122 19.6063 26.6347 21.6962C26.7147 22.2149 26.7279 24.8009 26.7283 39.9721C26.7287 59.2914 26.7472 58.2934 26.3659 59.4979C25.9339 60.862 25.3635 61.5158 24.1416 62.0477L23.6311 62.2698L32.7321 62.2635C42.9663 62.2561 43.1183 62.2508 45.2501 61.8258C50.0591 60.8673 54.6586 58.0476 57.8021 54.1303C61.0901 50.0336 62.8228 44.7897 62.6661 39.4078C62.5681 36.0478 61.8954 33.3073 60.4493 30.3771C59.2945 28.0373 57.9796 26.2178 56.1141 24.3793C52.8093 21.122 48.3094 18.7953 43.851 18.0386C42.2889 17.7734 41.9356 17.7647 32.6363 17.7601L23.695 17.7558L24.0655 17.9077ZM72.1383 18.27C71.9451 18.3018 71.5857 18.4236 71.3398 18.5405C70.2309 19.0678 69.6206 20.0462 69.6293 21.2828C69.6384 22.5981 70.4071 23.6474 71.7471 24.1733L72.0575 24.2952L72.2699 24.0768L72.4826 23.8585L72.1987 23.857C71.2845 23.8519 70.4359 23.3503 70.0907 22.6108C69.885 22.1703 69.8867 21.4203 70.0947 20.933C70.5785 19.7981 71.671 18.9109 72.8402 18.7028C74.1202 18.475 75.1774 19.2565 75.3053 20.5251C75.3395 20.8633 75.265 21.3802 75.1013 21.9414C75.0603 22.0821 75.0798 22.0767 75.418 21.8529C75.7723 21.6187 75.7787 21.6093 75.7787 21.3113C75.7787 20.4124 75.0295 19.1521 74.2088 18.67C73.6079 18.317 72.7993 18.1609 72.1383 18.27ZM38.6079 18.5755C43.7353 18.9842 48.1708 20.8268 51.6028 23.9735C54.7929 26.8986 56.9153 31.2122 57.5703 36.1009C58.1826 40.6753 57.7014 45.2805 56.2248 48.9722C55.1777 51.5895 53.7984 53.7057 51.9282 55.5629C50.9237 56.5605 50.3114 57.057 49.0639 57.8852C46.7287 59.4354 43.9154 60.5325 41.0028 61.0283C39.0042 61.3688 38.0261 61.4242 34.1499 61.4176L31.065 61.4122L31.0666 40.0756C31.0674 28.3404 31.0689 18.6817 31.0699 18.6117C31.0716 18.4861 31.1119 18.4847 34.3767 18.4931C36.2224 18.4979 38.0909 18.5343 38.6079 18.5755ZM4.20762 19.1682C4.18161 19.212 4.0206 19.4712 3.84982 19.7443C3.61439 20.1208 3.57175 20.2236 3.67354 20.1694C3.75051 20.1283 3.89331 20.1165 4.00822 20.1416C4.11844 20.1657 5.16988 20.7889 6.34472 21.5265C8.25729 22.7272 8.49225 22.893 8.58972 23.1097L8.69863 23.3519L8.94328 22.9533C9.07786 22.7341 9.23012 22.4891 9.28158 22.4089C9.37305 22.2662 9.37154 22.2646 9.21126 22.3373C9.09413 22.3904 8.99354 22.393 8.8586 22.3461C8.70322 22.2922 7.59206 21.6114 4.88237 19.9099C4.48848 19.6626 4.29529 19.4458 4.29529 19.251C4.29529 19.0695 4.27683 19.052 4.20762 19.1682ZM3.38519 23.2362C2.9339 23.2927 2.22849 23.62 1.83551 23.9554C1.3772 24.3466 1.14249 24.7622 0.286607 26.6981L0.169922 26.962L0.340511 26.8725C0.4381 26.8213 0.586974 26.7991 0.688203 26.8206C0.785539 26.8413 1.87767 27.313 3.11516 27.8689C5.33116 28.8645 5.6498 29.046 5.65426 29.3154C5.65681 29.4714 6.70684 27.1263 6.79327 26.7717C7.12174 25.4231 6.24413 23.8642 4.88331 23.3791C4.49438 23.2404 3.84637 23.1786 3.38519 23.2362ZM4.0722 23.8246C4.96283 24.0125 5.89784 24.6726 6.24477 25.3583C6.54489 25.9515 6.6133 26.5659 6.4491 27.1935C6.33073 27.6461 6.00662 28.394 5.91579 28.4242C5.87952 28.4363 5.29532 28.1972 4.61752 27.893C1.94952 26.6957 0.702127 26.1333 0.688394 26.1212C0.680476 26.1144 0.815554 25.8215 0.988506 25.4705C1.23733 24.9654 1.38186 24.7594 1.68083 24.4838C2.41 23.8115 3.10398 23.6202 4.0722 23.8246ZM75.4274 24.6199C74.3081 24.7993 73.3589 25.6144 73.0191 26.6885C72.6352 27.9015 73.0439 29.2194 74.038 29.9733C74.5799 30.3843 75.0416 30.5488 75.7535 30.5847C76.6812 30.6316 77.3157 30.4022 77.9652 29.7853C78.6084 29.1745 78.908 28.4814 78.908 27.6058C78.908 26.2515 78.0374 25.0883 76.7443 24.7157C76.335 24.5976 75.8059 24.5592 75.4274 24.6199ZM77.0154 25.2251C78.9369 25.6305 79.2828 27.7189 77.671 29.1826C76.2296 30.4919 73.9142 30.3395 73.2717 28.893C72.6268 27.4415 73.9807 25.5135 75.8646 25.2C76.3514 25.119 76.5312 25.123 77.0154 25.2251ZM75.0201 53.5633C74.7755 53.6151 74.5316 53.7795 74.3615 54.007C74.2645 54.137 73.671 55.4272 73.671 55.5081C73.671 55.5225 73.7226 55.5064 73.7857 55.473C73.8716 55.4273 74.0907 55.4887 74.6638 55.7199C76.4601 56.4449 76.7685 56.5879 76.8396 56.7289C76.9063 56.8619 76.9181 56.8518 77.0469 56.5535C77.2154 56.1643 77.2157 56.177 77.0332 56.2117C76.8708 56.2428 75.9065 55.8726 75.9065 55.7794C75.9065 55.7483 75.9515 55.6103 76.0068 55.473C76.1182 55.1954 76.0827 55.2101 77.0446 55.0461C77.6482 54.9428 77.7113 54.9188 77.7951 54.7577C77.9287 54.5001 77.9079 54.4474 77.7106 54.5446C77.5633 54.6167 76.5299 54.8292 76.3215 54.8299C76.2863 54.8299 76.2524 54.7003 76.2464 54.5419C76.2212 53.8881 75.6485 53.431 75.0201 53.5633ZM75.4673 53.9663C76.0501 54.2102 76.2259 54.719 75.9619 55.3969C75.8508 55.6822 75.7851 55.776 75.7149 55.75C75.6619 55.7306 75.2519 55.5659 74.8033 55.3838C73.8847 55.0106 73.9082 55.0474 74.2075 54.4484C74.4635 53.9355 74.95 53.7494 75.4673 53.9663ZM6.0604 57.1037C6.02195 57.1649 5.50489 57.4776 4.91136 57.798C3.39758 58.6158 3.33729 58.6459 3.20515 58.6459C3.14026 58.6459 3.09689 58.6673 3.10877 58.6934C3.21109 58.9189 3.4898 59.409 3.51567 59.409C3.5335 59.409 3.50462 59.3251 3.45148 59.2229C3.35683 59.0405 3.35913 59.0341 3.56165 58.9132C4.2668 58.4912 6.18045 57.501 6.29013 57.501H6.42148L6.29113 57.2467C6.21947 57.1067 6.15394 56.9921 6.14552 56.9921C6.13717 56.9921 6.09885 57.0426 6.0604 57.1037ZM73.2267 57.2835C73.1053 57.3359 72.9083 57.4529 72.7889 57.5437C72.5524 57.7231 72.2011 58.2296 72.2034 58.388C72.2041 58.4424 72.2578 58.371 72.3222 58.2296C72.7201 57.357 74.0988 57.2294 74.9449 57.9871C75.2976 58.3028 75.4311 58.5133 75.565 58.9636L75.6498 59.25L75.627 58.8347C75.5723 57.8461 74.8741 57.1802 73.8981 57.1856C73.6438 57.1869 73.3512 57.2297 73.2267 57.2835ZM72.1434 58.85C72.1363 59.3315 72.3282 59.8296 72.6329 60.1199C73.266 60.724 74.1212 60.8182 74.8419 60.3632C75.1164 60.1898 75.523 59.7227 75.523 59.5807C75.523 59.5456 75.4405 59.6308 75.3392 59.7698C75.0671 60.1437 74.6097 60.3231 74.0249 60.285C73.1291 60.2265 72.4376 59.6759 72.2403 58.8637L72.1487 58.4869L72.1434 58.85ZM3.78188 59.9091C3.91498 60.167 4.05885 60.3912 4.10159 60.4083C4.1443 60.4246 4.25929 60.4106 4.35706 60.3765L4.53481 60.3144L4.3432 60.2432C4.04231 60.1316 3.96886 60.0782 3.83224 59.8717C3.55514 59.4528 3.54863 59.4578 3.78188 59.9091ZM7.60323 59.7745C7.58247 59.836 7.28658 60.0718 6.94579 60.2993C5.70069 61.1299 5.52951 61.2669 5.39712 61.5392C5.32683 61.6838 5.26925 61.8876 5.26925 61.9922C5.26925 62.2591 5.55595 62.8014 5.81866 63.0312C6.00098 63.1906 6.09539 63.2247 6.3531 63.2247C6.78105 63.2247 6.87315 63.1819 7.86393 62.5221C8.8328 61.8769 8.96442 61.8118 9.12064 61.8987C9.26729 61.9805 9.25706 61.9237 9.07779 61.6608L8.92661 61.4393L8.89091 61.6167C8.86192 61.7607 8.66937 61.9177 7.86343 62.4549C7.01712 63.0185 6.82585 63.1201 6.56002 63.1455C6.34915 63.1655 6.18474 63.1425 6.05124 63.0737C5.47556 62.7773 5.35652 61.9304 5.82957 61.4961C6.13569 61.2148 7.74093 60.1657 7.88081 60.155C8.04635 60.1427 8.04635 60.1413 7.88259 59.8774C7.73385 59.6378 7.65893 59.6104 7.60323 59.7745ZM70.0128 61.7523C69.8478 62.0005 69.8478 62.0005 69.988 62.0005C70.1695 62.0005 72.5943 63.658 72.6339 63.8093C72.6731 63.9593 72.7557 63.9553 72.8396 63.799C72.8768 63.7302 73.1221 63.368 73.3848 62.9941C73.6475 62.6203 73.8625 62.2812 73.8625 62.2401C73.8625 62.1993 73.7948 62.1024 73.7119 62.0249L73.5616 61.8843L73.5928 62.208C73.6223 62.5161 73.6072 62.5571 73.2841 63.0332L72.9446 63.5344L72.7809 63.4218C72.6909 63.3596 72.143 62.9861 71.5633 62.5912C70.9838 62.1967 70.4349 61.7907 70.3437 61.6888L70.1779 61.5037L70.0128 61.7523ZM9.8983 63.1295C9.80995 63.501 9.4021 64.9098 9.3553 65.0047C9.32916 65.0575 9.21626 65.43 9.1043 65.8323C8.96137 66.3454 8.85917 66.596 8.76154 66.6725L8.6223 66.7811L8.84907 67.0083L9.07595 67.2358L9.38435 66.1523C9.55399 65.5566 9.71947 65.0692 9.75204 65.0692C9.78469 65.0692 9.79388 65.0408 9.77254 65.0064C9.70702 64.9008 10.1125 63.647 10.2484 63.5344C10.3713 63.4328 10.3696 63.4265 10.1586 63.1846L9.94359 62.9387L9.8983 63.1295ZM68.6574 63.8217C68.4819 63.9045 68.2376 64.0833 68.1145 64.2186L67.891 64.4648L68.1145 64.262C68.401 64.0021 68.6148 63.9243 69.0425 63.9243C70.0555 63.9243 70.9885 64.7815 70.9885 65.7123C70.9885 66.6164 70.0541 67.0948 69.0321 66.7139C68.3084 66.4443 67.7991 65.7675 67.7937 65.0692C67.7917 64.7802 67.779 64.7404 67.7199 64.8417C67.6807 64.9088 67.6488 65.1601 67.6488 65.3996C67.6488 66.2095 68.1363 66.8503 68.9268 67.0791C69.7629 67.321 70.6802 66.876 71.0214 66.0625C71.0741 65.9372 71.116 65.6442 71.1157 65.405C71.1147 64.6776 70.7429 64.094 70.0944 63.802C69.6824 63.6166 69.0747 63.6249 68.6574 63.8217ZM11.211 64.6502C11.1787 64.7348 11.1004 64.8173 11.0369 64.8337C10.9734 64.85 11.0733 64.8667 11.2587 64.8708L11.5959 64.8781L11.4543 64.6873C11.3764 64.5824 11.3029 64.4966 11.2911 64.4966C11.2793 64.4966 11.2432 64.5657 11.211 64.6502ZM67.8246 64.5644C67.8015 64.6018 67.7961 64.6459 67.8129 64.6626C67.8296 64.6793 67.8602 64.6489 67.881 64.5948C67.9243 64.4829 67.8874 64.4632 67.8246 64.5644ZM10.555 64.9232C10.6345 64.9386 10.7495 64.9379 10.8105 64.9219C10.8716 64.9062 10.8065 64.8935 10.6661 64.8941C10.5255 64.8948 10.4756 64.9082 10.555 64.9232ZM10.0441 64.9867C10.1236 65.002 10.2385 65.0014 10.2996 64.9857C10.3606 64.9696 10.2956 64.9573 10.1551 64.9579C10.0146 64.9586 9.96466 64.9716 10.0441 64.9867ZM8.86179 65.113C8.92325 65.129 9.02391 65.129 9.08534 65.113C9.14677 65.0969 9.09651 65.0839 8.97358 65.0839C8.85061 65.0839 8.80035 65.0969 8.86179 65.113ZM8.38354 65.1774C8.46299 65.1928 8.57797 65.1921 8.63904 65.1764C8.70007 65.1604 8.63508 65.148 8.49457 65.1487C8.35405 65.1494 8.30409 65.1624 8.38354 65.1774ZM7.48413 65.428C7.65843 65.6555 7.66232 65.6572 7.69748 65.5075C7.72144 65.406 7.80683 65.3301 7.95432 65.2794C8.1675 65.2062 8.16009 65.2032 7.74086 65.1998L7.30651 65.1962L7.48413 65.428ZM12.4861 65.9312C12.4861 66.0027 12.1399 66.4169 11.6658 66.9134C11.2146 67.3858 10.7979 67.8636 10.7397 67.9755C10.494 68.4489 10.6952 69.0663 11.2205 69.4508C11.5105 69.6633 11.8661 69.7104 12.2068 69.5815C12.3036 69.5447 12.7933 69.1121 13.2951 68.6203C14.1327 67.7988 14.222 67.7289 14.3847 67.7693L14.5619 67.8131L14.3384 67.5813L14.1149 67.3497L14.095 67.5428C14.0799 67.6902 13.8925 67.9254 13.3022 68.5371C12.5115 69.3563 12.1947 69.5845 11.8469 69.5845C11.4396 69.5845 10.9948 69.2009 10.9158 68.7813C10.8323 68.3383 10.9664 68.1128 11.8588 67.1977C12.3182 66.7263 12.7318 66.3411 12.7779 66.3411C12.9476 66.3411 12.9229 66.2285 12.7073 66.0207C12.5191 65.839 12.4863 65.8256 12.4861 65.9312ZM65.8991 66.719C65.5505 66.8766 65.0741 67.317 64.9009 67.6417C64.7043 68.0102 64.706 68.808 64.904 69.1796C65.1019 69.5511 65.4079 69.8347 65.8065 70.0165C66.0967 70.1488 66.2165 70.1681 66.5842 70.1418C67.3868 70.0846 67.9716 69.6025 68.2105 68.8014C68.3027 68.4917 68.3014 68.4703 68.1789 68.3483L68.0508 68.2207V68.5752C68.0508 69.4238 67.5945 69.9259 66.8298 69.9192C66.3661 69.9149 65.9726 69.7398 65.5525 69.3503C64.4366 68.3159 64.8409 66.9194 66.2574 66.9147L66.6678 66.9134L66.5178 66.7544C66.339 66.5646 66.2517 66.5596 65.8991 66.719ZM15.4464 68.8685C15.3801 69.0349 14.3983 70.3118 13.7835 71.0311C13.6266 71.2149 13.4522 71.3652 13.396 71.3652C13.3356 71.3652 13.3945 71.44 13.5397 71.5476L13.7857 71.7304L13.888 71.5306C13.9443 71.4207 14.2638 70.988 14.598 70.5687C14.9322 70.1498 15.3448 69.6286 15.5148 69.4108C15.6898 69.1866 15.8551 69.0322 15.8956 69.0549C16.1206 69.1819 16.5251 69.5564 16.6067 69.7134C16.7572 70.0034 16.7256 70.3486 16.5185 70.6736C16.1794 71.2058 15.6187 71.3114 15.0968 70.9412C14.957 70.842 14.7795 70.7221 14.7023 70.6746C14.5446 70.5774 14.6114 70.6419 14.9302 70.8951L15.0992 71.0291L15.0273 71.7908C14.949 72.6191 14.9631 72.7183 15.1744 72.8309C15.3013 72.8984 15.3117 72.8927 15.28 72.7721C15.2607 72.6986 15.2757 72.322 15.3134 71.9355C15.372 71.3345 15.3966 71.2386 15.4829 71.2747C15.5384 71.298 15.7175 71.3311 15.881 71.3485C16.7349 71.4394 17.2684 70.4361 16.736 69.7412C16.586 69.5454 15.6897 68.7593 15.5594 68.7095C15.5358 68.7001 15.485 68.772 15.4464 68.8685ZM18.1487 70.7645C18.1697 70.819 18.1505 71.3204 18.1062 71.879L18.0255 72.8947L17.6517 73.4653C17.4461 73.7794 17.2343 74.0363 17.1813 74.0363C17.0253 74.0363 17.0706 74.1215 17.3081 74.2745C17.5755 74.4472 17.5956 74.4492 17.5956 74.3049C17.5956 74.2428 17.7573 73.933 17.955 73.6167L18.3143 73.0417L19.0567 72.6184C19.465 72.3855 19.911 72.1567 20.0479 72.1099L20.2968 72.0247L20.0638 71.8877L19.831 71.7511V71.8981C19.831 71.9789 19.7807 72.0892 19.7192 72.1433C19.5886 72.2582 18.4498 72.8913 18.3739 72.8913C18.28 72.8913 18.477 71.2302 18.5851 71.1113C18.6762 71.0111 18.6635 70.9887 18.4286 70.834C18.1323 70.6385 18.0968 70.6299 18.1487 70.7645ZM60.2238 71.1457C59.9662 71.2723 59.8118 71.5456 59.8118 71.874C59.8118 72.0905 59.8511 72.1801 60.0195 72.3471C60.1336 72.4604 60.2621 72.5646 60.305 72.579C60.3648 72.599 60.3597 72.6725 60.2842 72.8907C60.0873 73.458 60.3151 74.0172 60.8506 74.2818C61.0928 74.4014 61.2113 74.4235 61.4347 74.3901C61.988 74.3076 62.5194 73.8148 62.602 73.3073C62.6429 73.0571 62.6285 73.0627 63.1734 73.0804C63.4277 73.0885 63.6337 73.0577 63.7602 72.9926C63.9947 72.872 64.0772 72.763 63.8991 72.8095C63.8286 72.8279 63.5297 72.8229 63.2348 72.7985L62.6983 72.7537L62.6201 72.3418C62.5772 72.1149 62.5423 71.8597 62.5423 71.7745C62.5423 71.6893 62.5312 71.6194 62.5181 71.6194C62.5047 71.6194 62.3574 71.7046 62.1906 71.8092L61.8877 71.9986L62.0984 72C62.2836 72.001 62.3235 72.0334 62.4322 72.2713C62.6332 72.7123 62.6224 72.7246 62.095 72.6772C61.5287 72.6257 60.6298 72.4099 60.3091 72.2479C59.9064 72.0444 59.7981 71.6184 60.0745 71.3258C60.301 71.0856 60.6416 71.1163 60.8909 71.3993C61.0831 71.6168 61.0891 71.6191 61.0891 71.4674C61.0891 71.274 60.8157 71.0465 60.5855 71.0485C60.4936 71.0495 60.3309 71.0932 60.2238 71.1457ZM61.3015 72.8302C61.6115 72.8943 62.0242 72.9669 62.2182 72.9909L62.5708 73.0347L62.5312 73.2321C62.4614 73.5789 62.2665 73.8732 62.0098 74.0192C61.3072 74.4185 60.4507 73.8689 60.4507 73.0193C60.4507 72.6892 60.4916 72.6137 60.6389 72.6732C60.6932 72.6952 60.9915 72.7657 61.3015 72.8302ZM56.2795 73.5502C56.2591 73.6033 56.0896 73.6544 55.8447 73.6821C55.6239 73.7072 55.3844 73.7573 55.3122 73.7941C55.0522 73.9264 54.7623 74.2595 54.6972 74.5007C54.6399 74.7128 54.6513 74.7877 54.7784 75.0402C54.9885 75.4572 55.2384 75.5671 56.0591 75.6035C56.9606 75.6433 57.1207 75.675 57.2961 75.8501C57.7323 76.2844 57.179 77.0408 56.4295 77.0351C56.1017 77.0324 55.7927 76.9108 55.5488 76.6887C55.3636 76.5199 55.3669 76.5473 55.5968 77.0578C55.7873 77.4801 55.7897 77.4825 55.9004 77.3471C55.9796 77.2499 56.1249 77.1945 56.4043 77.1554C56.8465 77.0932 57.0173 77.0197 57.2787 76.7789C57.6538 76.4334 57.7414 76.0141 57.5152 75.6449C57.3193 75.3249 57.0656 75.2333 56.2131 75.1742C55.2928 75.1107 55.0509 75.0399 54.9251 74.797C54.8002 74.5571 54.8056 74.4265 54.9505 74.19C55.2062 73.7723 55.9054 73.6517 56.3996 73.9401L56.6707 74.0984L56.5362 73.781C56.3976 73.4543 56.3372 73.4002 56.2795 73.5502ZM23.056 73.7039C23.0973 73.9618 21.8988 76.5166 21.6873 76.6218C21.5357 76.697 21.5399 76.702 21.8792 76.8524C22.0699 76.9369 22.5225 77.142 22.885 77.3081C23.6032 77.6371 23.5755 77.6385 23.7967 77.2589C23.8565 77.1561 23.8496 77.1507 23.7359 77.2112C23.4899 77.3421 23.0252 77.29 22.5664 77.0792C22.3265 76.9693 22.1302 76.8597 22.1302 76.836C22.1302 76.7725 22.7133 75.4762 22.7698 75.4141C22.7963 75.3847 22.9773 75.4361 23.1721 75.5277C23.4231 75.6459 23.5436 75.7448 23.5856 75.8671L23.6447 76.0395L23.7497 75.7933C23.8074 75.6576 23.8546 75.5417 23.8546 75.5357C23.8546 75.5293 23.7581 75.5357 23.6401 75.5494C23.4679 75.5694 23.0021 75.4097 22.847 75.2774C22.8242 75.2581 23.4087 73.9571 23.4711 73.8886C23.5257 73.8288 24.3306 74.1766 24.5154 74.3403C24.5834 74.4004 24.6894 74.5601 24.7509 74.6954L24.8628 74.9413L24.9079 74.6754C24.9327 74.5287 24.943 74.3994 24.9307 74.3871C24.9185 74.375 24.6498 74.2511 24.3336 74.1111C24.0175 73.9715 23.5944 73.7837 23.3935 73.6938L23.0282 73.5308L23.056 73.7039ZM53.026 74.8485C52.6875 74.9604 52.6482 75.0212 52.8771 75.0787C52.9851 75.1054 53.0613 75.1979 53.1314 75.3874C53.4021 76.118 53.8621 77.4704 53.84 77.4704C53.8262 77.4704 53.2062 77.0385 52.4627 76.5102L51.1106 75.5501L50.8237 75.6302L50.5365 75.7104L50.6976 75.7943C50.8727 75.8858 50.9918 76.1645 51.5444 77.7778C51.8423 78.6471 51.8521 78.6972 51.7564 78.8629L51.6565 79.0363L51.9339 78.9455C52.2486 78.8422 52.2728 78.7991 52.0678 78.7096C51.952 78.6591 51.835 78.3915 51.4598 77.3181C51.2042 76.5874 51.0059 75.9787 51.019 75.9657C51.0317 75.953 51.1116 75.9957 51.1958 76.0612C51.2803 76.1264 51.9531 76.6031 52.6905 77.1206C53.4283 77.6381 54.0675 78.0888 54.1111 78.1229C54.1742 78.172 53.5457 76.2657 53.2394 75.4789C53.1398 75.2226 53.1532 74.9864 53.2753 74.8521C53.3334 74.788 53.3693 74.7385 53.3552 74.7419C53.3411 74.7452 53.1928 74.793 53.026 74.8485ZM26.1101 74.9961C26.1989 75.1321 26.6641 76.7591 26.6646 76.9359C26.6648 77.0264 25.2183 78.1062 25.0969 78.1062C24.9149 78.1062 25.0089 78.2044 25.286 78.3037L25.5678 78.4046L25.5343 78.1994C25.5024 78.0033 25.5279 77.9732 26.0985 77.5342L26.696 77.0745L26.8847 77.8416C27.0618 78.5622 27.0668 78.6164 26.9663 78.7266C26.8639 78.8396 26.8768 78.8502 27.2653 78.9759L27.6712 79.1075L27.5822 78.9408C27.5051 78.7964 26.6648 75.5297 26.6648 75.3743C26.6648 75.3429 26.7077 75.2744 26.7601 75.2223C26.8447 75.1381 26.8177 75.1147 26.5206 75.0175C26.3364 74.9574 26.1463 74.8936 26.098 74.8755C26.0296 74.8505 26.0323 74.8769 26.1101 74.9961ZM28.0504 75.7221C28.0817 75.9139 28.0543 75.948 27.5643 76.3255C27.2787 76.5453 27.0572 76.7378 27.0721 76.7525C27.0871 76.7675 27.3852 76.57 27.7346 76.3141C28.084 76.0582 28.4192 75.82 28.4793 75.7849C28.5709 75.7318 28.5422 75.7051 28.3029 75.6202L28.0172 75.5187L28.0504 75.7221ZM29.639 76.2724C29.5836 76.383 29.5475 76.4828 29.5588 76.4939C29.5701 76.5052 29.6925 76.4565 29.8305 76.3856C30.0084 76.2941 30.1469 76.2674 30.3052 76.2944C30.667 76.3559 30.7523 76.3926 30.7523 76.4869C30.7523 76.5356 30.5955 77.2279 30.404 78.0247C30.14 79.1232 30.0247 79.4987 29.9272 79.5776C29.8008 79.6795 29.8017 79.6818 29.9806 79.7175C30.0807 79.7373 30.2364 79.7723 30.3267 79.7947C30.4821 79.8335 30.4892 79.8245 30.461 79.623C30.443 79.4934 30.564 78.8502 30.7703 77.9793C31.0938 76.6135 31.1164 76.5473 31.2661 76.5303C31.5131 76.5019 31.9725 76.7725 32.1047 77.0241L32.2212 77.2459V76.9499V76.6542L31.0092 76.3626C30.3426 76.2022 29.7843 76.0712 29.7685 76.0712C29.7527 76.0712 29.6944 76.1618 29.639 76.2724ZM47.7091 76.4023C47.2441 76.5644 46.8475 76.9616 46.6569 77.4567C46.4137 78.0888 46.5382 78.7189 47.0099 79.2415C47.8423 80.1632 49.3333 79.9571 49.8799 78.8446C50.4573 77.6692 49.6159 76.3175 48.3157 76.3312C48.0876 76.3338 47.8145 76.3656 47.7091 76.4023ZM48.6989 76.5483C49.0025 76.7047 49.3411 77.0819 49.5216 77.4648C49.6571 77.7527 49.6883 77.9104 49.6853 78.297C49.6789 79.1616 49.2216 79.7109 48.5083 79.7109C47.7571 79.7109 47.0237 78.9241 46.9297 78.0173C46.8593 77.3365 47.2434 76.6131 47.7588 76.4568C48.0168 76.3783 48.4509 76.4207 48.6989 76.5483ZM33.5691 76.9827C33.6254 77.1056 33.6041 77.421 33.4711 78.434C33.2605 80.0396 33.2552 80.0657 33.1171 80.2033C33.0091 80.3109 33.0407 80.3206 33.8423 80.4245C34.3029 80.4843 34.7981 80.5484 34.9428 80.5671C35.183 80.5985 35.2088 80.5879 35.2457 80.4409C35.2682 80.3527 35.3054 80.2277 35.3286 80.1632C35.3645 80.064 35.3464 80.0683 35.2115 80.1906C34.9615 80.4171 34.7029 80.4619 34.0956 80.3837C33.5914 80.3189 33.5555 80.3046 33.5861 80.1799C33.6042 80.1064 33.6546 79.7383 33.698 79.3624C33.7866 78.5973 33.7544 78.6291 34.3264 78.739C34.4935 78.7711 34.6589 78.8519 34.7257 78.9341L34.8397 79.0744V78.8816C34.8397 78.7757 34.8585 78.6404 34.8817 78.5806C34.9209 78.4787 34.9136 78.4784 34.7592 78.5793C34.6284 78.6645 34.5166 78.6775 34.2066 78.6424C33.7591 78.592 33.7825 78.6631 33.9144 77.7564C33.9654 77.4066 34.0077 77.0959 34.0083 77.0655C34.0097 77 34.784 77.0688 35.0786 77.1607C35.1924 77.1961 35.3736 77.3304 35.4819 77.4591L35.6782 77.6929L35.6346 77.4387C35.6104 77.2987 35.5725 77.1664 35.5507 77.1447C35.5286 77.123 35.1082 77.0562 34.6163 76.9964C34.1244 76.9362 33.6715 76.8734 33.6096 76.8564C33.5113 76.8293 33.5062 76.845 33.5691 76.9827ZM44.9307 76.9372C44.878 76.9459 44.7284 76.9703 44.5979 76.9917C44.3624 77.0298 44.3617 77.0308 44.4862 77.1547C44.5549 77.2235 44.6113 77.3211 44.6113 77.3719C44.6113 77.4227 44.6979 78.0828 44.8032 78.8385C44.9435 79.8432 44.977 80.2461 44.9287 80.3363C44.8717 80.4422 44.8837 80.4592 45.0163 80.4592C45.1012 80.4592 45.2605 80.4415 45.3709 80.4195C45.5444 80.3847 45.5575 80.3694 45.4679 80.3039C45.3196 80.196 44.8948 77.3164 44.9948 77.0966C45.0716 76.9269 45.0666 76.9148 44.9307 76.9372ZM41.4501 77.297C40.7965 77.6619 40.8542 78.5312 41.5554 78.8806C41.6732 78.9394 42.0137 79.0995 42.3124 79.2365C42.9411 79.5251 43.1042 79.6791 43.1042 79.9838C43.1042 80.2631 42.8841 80.5017 42.5412 80.5939C42.0161 80.7345 41.5846 80.5601 41.2209 80.06L41.035 79.8044V80.2591C41.035 80.509 41.0495 80.7138 41.0676 80.7138C41.0857 80.7138 41.1552 80.6797 41.2223 80.638C41.3162 80.5795 41.4185 80.5795 41.6732 80.638C42.1657 80.7512 42.5063 80.7312 42.822 80.5708C43.1897 80.3834 43.3501 80.1582 43.3457 79.8345C43.3384 79.3046 43.0606 79.0303 42.1688 78.6725C41.2712 78.312 41.0129 77.9014 41.4075 77.4617C41.5601 77.2914 41.644 77.2553 41.9476 77.2302C42.2496 77.2055 42.3506 77.2262 42.5834 77.3622C42.7354 77.4507 42.8995 77.5974 42.9482 77.6876C43.0434 77.865 43.181 77.9168 43.1173 77.7514C43.0961 77.6959 43.0787 77.5366 43.0787 77.3969C43.0787 77.1664 43.0696 77.1524 42.9783 77.2432C42.8572 77.3639 42.8965 77.3632 42.5677 77.2479C42.1741 77.1096 41.7527 77.128 41.4501 77.297ZM36.8857 77.2683C36.8867 77.292 36.9297 77.3669 36.9813 77.4347C37.0441 77.5175 37.079 77.7384 37.087 78.1025L37.0988 78.6468L37.135 78.1136L37.1709 77.58L38.2248 79.1767C39.0032 80.3567 39.2897 80.7449 39.3219 80.664C39.3457 80.6039 39.3699 80.1398 39.3756 79.6327C39.381 79.1255 39.4048 78.4573 39.4286 78.1476C39.4658 77.6625 39.4923 77.5683 39.6218 77.4641L39.7718 77.3431H39.434H39.0964L39.2414 77.4968C39.3739 77.6371 39.3836 77.6929 39.3521 78.1486C39.3333 78.4226 39.3162 78.9568 39.3142 79.3357C39.3122 79.7196 39.2847 80.0156 39.2524 80.0035C39.2206 79.9918 38.8163 79.4102 38.3536 78.7106C37.8909 78.011 37.4786 77.4039 37.4373 77.3615C37.3561 77.278 36.8824 77.1981 36.8857 77.2683ZM37.0005 79.6701C36.9807 80.4225 36.9703 80.4783 36.8287 80.5925C36.7341 80.6684 36.7102 80.7162 36.7646 80.7202C36.8126 80.7238 36.9629 80.7365 37.0994 80.7489L37.3471 80.7713L37.2075 80.6229C37.0763 80.4843 37.0689 80.4248 37.0874 79.6721C37.0981 79.2304 37.0877 78.8693 37.0646 78.8693C37.0407 78.8693 37.0122 79.2298 37.0005 79.6701Z" fill="white"/>
</g>
<defs>
<clipPath id="clip0_77_535">
<rect x="0.169922" y="0.00976562" width="78.8462" height="80.8507" rx="4" fill="white"/>
</clipPath>
</defs>
</svg>
